<svg xmlns="http://www.w3.org/2000/svg" width="20" height="21" viewBox="0 0 20 21" fill="none">
  <g clip-path="url(#clip0_329_5254)">
    <path d="M1.12 19.8101C0.813333 19.8101 0.55 19.7034 0.33 19.4901C0.11 19.2767 0 19.0101 0 18.6901V2.09008C0 1.78341 0.11 1.52008 0.33 1.30008C0.55 1.08008 0.813333 0.970079 1.12 0.970079H13.12C13.4267 0.970079 13.69 1.08008 13.91 1.30008C14.13 1.52008 14.24 1.78341 14.24 2.09008V18.6901C14.24 18.9034 14.19 19.0967 14.09 19.2701C13.99 19.4434 13.85 19.5801 13.67 19.6801C13.49 19.7801 13.3 19.8267 13.1 19.8201C12.9 19.8134 12.7133 19.7567 12.54 19.6501L7.12 16.3301L1.72 19.6501C1.53333 19.7567 1.33333 19.8167 1.12 19.8301V19.8101ZM1.24 2.21008V18.4701L7.12 14.8501L13 18.4701V2.21008H1.24Z" fill="#FFC562"/>
  </g>
  <defs>
    <clipPath id="clip0_329_5254">
      <rect width="20" height="20" fill="white" transform="matrix(1 0 0 -1 0 20.0898)"/>
    </clipPath>
  </defs>
</svg>