<svg xmlns="http://www.w3.org/2000/svg" width="20" height="20" viewBox="0 0 20 20" fill="none">
  <path d="M6.72 20C6.52 20 6.35 19.93 6.21 19.79C6.07 19.65 6 19.48 6 19.28V16.12H3.62C2.96667 16.12 2.36333 15.9567 1.81 15.63C1.25667 15.3033 0.816667 14.8633 0.49 14.31C0.163333 13.7567 0 13.1533 0 12.5V4.5C0 3.84667 0.163333 3.24333 0.49 2.69C0.816667 2.13667 1.25667 1.69667 1.81 1.37C2.36333 1.04333 2.96667 0.880001 3.62 0.880001H14.62C15.2733 0.880001 15.8767 1.04333 16.43 1.37C16.9833 1.69667 17.4233 2.13667 17.75 2.69C18.0767 3.24333 18.24 3.84667 18.24 4.5V12.5C18.24 13.1533 18.0767 13.7567 17.75 14.31C17.4233 14.8633 16.9833 15.3033 16.43 15.63C15.8767 15.9567 15.2733 16.12 14.62 16.12H11.36L7.2 19.82C7.06667 19.94 6.90667 20 6.72 20ZM3.62 2.12C3.19333 2.12 2.79667 2.22667 2.43 2.44C2.06333 2.65333 1.77333 2.94333 1.56 3.31C1.34667 3.67667 1.24 4.07333 1.24 4.5V12.5C1.24 12.9267 1.34667 13.3233 1.56 13.69C1.77333 14.0567 2.06333 14.3467 2.43 14.56C2.79667 14.7733 3.19333 14.88 3.62 14.88H7.24V18.1L10.88 14.88H14.62C15.0467 14.88 15.4433 14.7733 15.81 14.56C16.1767 14.3467 16.4667 14.0567 16.68 13.69C16.8933 13.3233 17 12.9267 17 12.5V4.5C17 4.07333 16.8933 3.67667 16.68 3.31C16.4667 2.94333 16.1767 2.65333 15.81 2.44C15.4433 2.22667 15.0467 2.12 14.62 2.12H3.62Z" fill="#425F80"/>
</svg>