<svg xmlns="http://www.w3.org/2000/svg" width="15" height="19" viewBox="0 0 15 19" fill="none">
  <path d="M10.75 6.97446H12.375C12.806 6.97446 13.2193 7.14668 13.524 7.45323C13.8288 7.75978 14 8.17555 14 8.60907V16.4552C14 16.8888 13.8288 17.3045 13.524 17.6111C13.2193 17.9176 12.806 18.0898 12.375 18.0898H2.625C2.19402 18.0898 1.7807 17.9176 1.47595 17.6111C1.1712 17.3045 1 16.8888 1 16.4552V8.60907C1 8.17555 1.1712 7.75978 1.47595 7.45323C1.7807 7.14668 2.19402 6.97446 2.625 6.97446H4.25M10.75 4.35907L7.5 1.08984M7.5 1.08984L4.25 4.35907M7.5 1.08984V12.2461" stroke="#425F80" stroke-linecap="round" stroke-linejoin="round"/>
</svg>