<svg width="32" height="32" viewBox="0 0 32 32" fill="none" xmlns="http://www.w3.org/2000/svg">
<circle cx="16" cy="16" r="16" fill="#FBD44B"/>
<path d="M16.6168 11.0909L16.4091 18.7294H14.4595L14.2464 11.0909H16.6168ZM15.4343 22.1385C15.0827 22.1385 14.7809 22.0142 14.5288 21.7656C14.2766 21.5135 14.1523 21.2116 14.1559 20.8601C14.1523 20.5121 14.2766 20.2138 14.5288 19.9652C14.7809 19.7166 15.0827 19.5923 15.4343 19.5923C15.7717 19.5923 16.0682 19.7166 16.3239 19.9652C16.5795 20.2138 16.7092 20.5121 16.7127 20.8601C16.7092 21.0945 16.647 21.3093 16.5263 21.5046C16.4091 21.6964 16.2546 21.8509 16.0629 21.968C15.8711 22.0817 15.6616 22.1385 15.4343 22.1385Z" fill="white"/>
</svg>
