<svg xmlns="http://www.w3.org/2000/svg" width="12" height="20" viewBox="0 0 12 20" fill="none">
  <path d="M11.2575 9.41175L2.20136 0.782999C2.05025 0.638951 1.8495 0.558594 1.64073 0.558594C1.43197 0.558594 1.23122 0.638951 1.08011 0.782999L1.07036 0.792749C0.996851 0.86258 0.93832 0.946636 0.898322 1.0398C0.858325 1.13297 0.837699 1.2333 0.837699 1.33469C0.837699 1.43608 0.858325 1.5364 0.898322 1.62957C0.93832 1.72274 0.996851 1.80679 1.07036 1.87662L9.59836 10.0016L1.07036 18.1234C0.996851 18.1932 0.93832 18.2773 0.898322 18.3704C0.858325 18.4636 0.837699 18.5639 0.837699 18.6653C0.837699 18.7667 0.858325 18.867 0.898322 18.9602C0.93832 19.0534 0.996851 19.1374 1.07036 19.2072L1.08011 19.217C1.23122 19.361 1.43197 19.4414 1.64073 19.4414C1.8495 19.4414 2.05025 19.361 2.20136 19.217L11.2575 10.5883C11.3371 10.5124 11.4005 10.4211 11.4439 10.32C11.4872 10.2189 11.5095 10.11 11.5095 10C11.5095 9.88999 11.4872 9.78113 11.4439 9.68001C11.4005 9.5789 11.3371 9.48763 11.2575 9.41175Z" fill="#F6A290"/>
</svg>