<svg width="32" height="32" viewBox="0 0 32 32" fill="none" xmlns="http://www.w3.org/2000/svg">
<circle cx="16" cy="16" r="16" fill="#F08059"/>
<path d="M16.6168 10.0909L16.4091 17.7294H14.4595L14.2464 10.0909H16.6168ZM15.4343 21.1385C15.0827 21.1385 14.7809 21.0142 14.5288 20.7656C14.2766 20.5135 14.1523 20.2116 14.1559 19.8601C14.1523 19.5121 14.2766 19.2138 14.5288 18.9652C14.7809 18.7166 15.0827 18.5923 15.4343 18.5923C15.7717 18.5923 16.0682 18.7166 16.3239 18.9652C16.5795 19.2138 16.7092 19.5121 16.7127 19.8601C16.7092 20.0945 16.647 20.3093 16.5263 20.5046C16.4091 20.6964 16.2546 20.8509 16.0629 20.968C15.8711 21.0817 15.6616 21.1385 15.4343 21.1385Z" fill="white"/>
</svg>
