<svg width="635" height="702" viewBox="0 0 635 702" fill="none" xmlns="http://www.w3.org/2000/svg">
<path d="M579.52 587.715C587.659 534.209 652.329 525.929 630.225 443.568C614.151 383.682 562.621 380.875 550.244 366.591C523.586 335.825 527.911 281.288 494.128 256.579C474.115 241.942 446.422 242.655 420.979 246.187C395.613 249.71 369.612 262.332 345.366 256.045C313.461 249.854 311.835 241.062 285.306 231.988C245.335 218.316 180.481 233.27 158.43 270.487C137.778 305.347 142.151 333.013 125.71 368.586C99.7048 424.85 31.2204 450.032 7.72466 504.281C-5.05867 533.795 -1.74788 569.429 15.965 596.692C34.9255 625.875 68.6646 645.326 85.9331 673.689H595.306C595.306 673.689 571.997 637.179 579.52 587.715Z" fill="#74A3BE" fill-opacity="0.22"/>
<path d="M234.147 160.778C253.111 108.338 194.091 72.5777 133.839 89.0466C73.5861 105.516 26.4618 165.867 36.4799 217.666C46.4963 269.464 61.0442 306.559 100.127 299.241C137.132 292.311 125.301 261.429 151.709 226.563C178.117 191.696 215.565 212.161 234.147 160.778Z" fill="#74A3BE" fill-opacity="0.22"/>
<path d="M244.034 228.306C250.188 233.262 257.947 237.47 267.733 240.346L267.941 239.637C237.606 230.801 226.93 208.867 223.318 191.958C223.272 191.764 223.231 191.57 223.191 191.376C220.977 180.104 220.809 168.526 222.696 157.195C226.308 154.787 252.349 137.215 249.332 132.258C249.073 131.834 248.725 131.471 248.313 131.192C247.901 130.914 247.434 130.728 246.944 130.646C240.87 129.382 227.171 138.312 223.372 140.894C225.566 134.874 235.231 107.215 229.352 100.379C229.104 100.004 228.747 99.7153 228.33 99.5503C227.912 99.3852 227.454 99.3521 227.017 99.4556C223.954 100.325 220.997 109.716 218.897 118.76C219.907 109.803 220.322 100.071 217.947 96.7198C217.734 96.3875 217.453 96.1034 217.124 95.8857C216.795 95.668 216.423 95.5215 216.034 95.4556C215.696 95.4186 215.353 95.4512 215.028 95.5512C214.702 95.6513 214.4 95.8168 214.141 96.0375C210.957 98.4857 208.382 108.586 206.649 117.663C207.318 106.914 206.863 94.4455 201.378 93.4087C201.024 93.3457 200.659 93.3629 200.312 93.4589C199.965 93.555 199.644 93.7275 199.372 93.9639C196.148 96.4924 194.148 107.282 192.991 116.66C193.766 92.8535 192.288 92.6462 187.753 92.0107C187.576 91.9869 187.396 92.0028 187.226 92.0572C187.056 92.1116 186.9 92.2031 186.77 92.3251C182.756 95.6696 181.465 129.844 181.419 131.295C181.372 131.583 176.522 164.519 182.529 199.403C182.863 201.356 183.198 203.275 183.619 205.168C187.332 223.142 193.492 238.346 201.96 250.419C213.68 267.142 229.867 277.844 250.081 282.286L250.242 281.563C236.442 278.527 225.359 272.687 216.449 265.135C221.486 232.6 242.181 228.593 244.034 228.306ZM215.787 264.56C195.86 247.269 187.024 221.316 183.251 199.262C177.231 164.479 182.094 131.703 182.148 131.355C182.516 121.502 184.154 95.4823 187.245 92.8803C187.295 92.8253 187.358 92.7828 187.427 92.7561C187.497 92.7294 187.572 92.7193 187.646 92.7265C192.328 93.3953 193.419 93.5358 191.659 131.523L192.402 131.563C192.402 131.235 194.275 98.9338 199.847 94.5659C200.036 94.3958 200.261 94.2707 200.506 94.2001C200.75 94.1294 201.007 94.115 201.258 94.1579C208.034 95.4355 206.235 117.355 204.97 127.83C204.522 130.894 204.261 133.001 204.228 133.329L204.957 133.429C205.017 133.081 205.352 130.934 205.733 127.81C207.118 118.305 210.355 99.877 214.569 96.6061C214.75 96.446 214.963 96.3252 215.193 96.2515C215.423 96.1778 215.667 96.1528 215.907 96.178C216.197 96.2279 216.473 96.339 216.716 96.5039C216.959 96.6689 217.165 96.8838 217.318 97.1345C220.563 101.71 218.195 119.737 216.603 129.509C215.934 133.041 215.532 135.529 215.479 135.897L216.208 136.031C216.275 135.656 216.803 132.954 217.432 129.108C219.599 117.737 223.532 101.188 227.191 100.151C227.72 100.004 228.235 100.231 228.77 100.82C234.951 108.004 222.375 141.355 222.248 141.697L221.813 142.827L222.803 142.158C222.977 142.038 240.141 129.984 246.763 131.362C247.154 131.422 247.527 131.565 247.857 131.782C248.187 131.999 248.467 132.285 248.676 132.62C250.683 135.964 233.914 148.814 222.134 156.64L222.007 156.727V156.874C220.036 168.55 220.238 180.489 222.603 192.091C225.044 203.496 230.683 217.195 243.298 227.697C239.225 228.56 220.67 234.179 215.787 264.56Z" fill="#1B1147"/>
<path d="M367.578 387.736C362.406 387.563 227.798 348.7 194.639 339.098L187.31 336.962L197.473 325.467L251.792 264.027L264.617 249.549L308.009 200.478L334.201 209.08C334.201 209.08 336.861 221.239 340.725 239.239C341.599 243.371 342.546 247.773 343.526 252.46C347.488 271.054 352.141 293.471 356.358 314.601C357.887 322.409 359.401 330.074 360.777 337.259C366.153 365.838 369.634 387.787 367.578 387.736Z" fill="#FFCC66"/>
<path d="M82.4535 493.917L82.4597 493.951L82.4612 493.985L91.5455 688.006L261.389 701.433L185.874 478.038L185.684 477.474L186.272 477.383L320.546 456.564L320.547 456.563C327.347 455.529 333.827 453.115 339.616 449.461C345.405 445.807 350.391 440.984 354.287 435.266C358.184 429.549 360.915 423.049 362.323 416.139C363.732 409.229 363.789 402.045 362.491 394.997C361.193 387.949 358.565 381.178 354.758 375.071C350.951 368.965 346.04 363.644 340.307 359.413C334.574 355.182 328.132 352.125 321.351 350.415C314.569 348.705 307.582 348.376 300.789 349.446L300.788 349.446L166.499 370.238C138.958 374.506 114.632 389.929 98.8712 413.118C83.1095 436.308 77.2002 465.371 82.4535 493.917Z" fill="#6935FF" stroke="white"/>
<path d="M452.702 587.644L617.163 509.652L510.494 366.365L410.542 496.473L410.04 497.125L409.693 496.379L354.659 378.093L354.658 378.091C351.897 372.086 347.97 366.699 343.105 362.239C338.24 357.779 332.532 354.334 326.308 352.101C320.084 349.869 313.466 348.893 306.836 349.231C300.205 349.568 293.691 351.212 287.669 354.068C281.647 356.924 276.234 360.936 271.743 365.873C267.251 370.81 263.77 376.576 261.497 382.839C259.224 389.101 258.206 395.738 258.499 402.366C258.793 408.995 260.393 415.486 263.207 421.466L263.208 421.468L318.247 539.76C329.535 564.018 350.041 582.691 375.256 591.672C400.267 600.581 427.879 599.23 452.114 587.929L452.111 587.925L452.702 587.644Z" fill="#6935FF" stroke="white"/>
<path d="M493.009 332.232C492.829 332.703 492.641 333.231 492.44 333.806C491.076 337.768 488.98 343.675 484.57 342.385C482.127 341.673 479.63 340.794 477.15 339.795C476.348 339.469 475.544 339.135 474.779 338.814C471.938 337.564 469.169 336.194 466.542 334.875L465.725 334.501L465.222 334.261C462.737 333.035 458.409 330.849 456.508 328.184C453.791 326.29 451.207 324.085 448.796 321.604C440.596 315.668 432.035 310.666 423.24 306.671C421.549 305.877 419.798 305.106 417.987 304.357C401.551 297.529 377.177 291.174 354.008 299.373L353.186 299.642L353.056 299.245L352.926 298.848C353.685 298.599 354.432 298.311 355.185 298.065C360.656 296.287 366.339 295.204 372.149 294.832L371.912 294.576C372.034 294.395 383.956 276.863 370.406 245.081C362.384 245.201 354.581 246.731 347.236 249.624L346.945 248.841C348.174 248.351 349.416 247.9 350.671 247.489C377.573 238.684 406.971 249.389 427.288 260.245C441.143 267.646 454.46 276.852 466.977 287.68C467.438 287.338 467.944 287.077 468.481 286.907C470.922 286.108 474.165 286.804 477.051 287.617C481.45 288.875 488.103 290.775 492.279 296.21C499.373 305.445 497.112 321.398 493.009 332.232ZM471.457 310.962L470.419 310.422C466.072 308.286 463.197 307.61 461.708 308.37C460.474 308.993 460.308 310.586 460.139 312.065C460.095 312.483 460.053 312.884 459.983 313.267C459.753 314.687 461.626 316.798 464.618 319.149C465.973 317.01 467.62 315.179 469.504 313.719L469.756 313.513C470.306 313.07 470.761 312.657 471.215 312.262L472.155 311.462L471.457 310.962ZM466.021 290.111C465.956 290.258 465.924 290.427 465.926 290.603C465.928 290.78 465.965 290.959 466.034 291.126C466.606 292.872 469.476 295.273 473.152 297.822C473.869 298.317 474.624 298.817 475.399 299.319C477.84 300.409 480.285 301.701 482.556 302.952C487.545 305.713 491.582 308.346 492.007 308.647L491.788 309.378C491.382 309.177 487.203 307.108 482.274 304.319C480.025 303.051 477.622 301.632 475.357 300.167C474.535 299.777 473.723 299.419 472.921 299.093C468.173 297.131 464.218 296.317 463.069 298.178C462.851 298.507 462.713 298.91 462.669 299.348C462.624 299.786 462.674 300.247 462.814 300.687C463.565 303.324 466.793 306.477 470.667 309.462L471.765 310.289C472.143 310.482 472.53 310.689 472.927 310.911C474.97 309.363 476.768 308.977 479.708 312.057C480.004 312.358 480.235 312.742 480.376 313.166C480.591 313.916 480.602 314.697 480.409 315.387C482.502 316.732 484.832 318.289 487.432 320.075L487.195 320.794C486.86 320.622 483.837 319.028 480.001 316.689C479.787 317.206 479.543 317.7 479.269 318.168C477.621 320.821 475.656 323.148 473.427 325.09C474.689 325.845 475.998 326.577 477.256 327.299C479.651 328.633 482.034 329.883 484.196 330.95L484.183 331.016L484.335 331.098L484.239 331.464L484.144 331.829C481.56 330.472 479.201 329.246 477.069 328.151C475.438 327.314 473.928 326.557 472.54 325.881C470.575 327.633 468.419 329.079 466.113 330.19C465.129 330.7 464.044 330.953 462.919 330.937C461.522 330.758 460.128 330.277 458.806 329.515C460.914 331.093 463.127 332.411 465.407 333.445L465.918 333.69L466.74 334.08C469.353 335.396 472.115 336.768 474.972 338.004C475.776 338.338 476.534 338.679 477.324 338.991C479.783 339.988 482.267 340.889 484.681 341.557C488.577 342.699 490.467 337.308 491.851 333.366C492.048 332.801 492.238 332.255 492.424 331.782C496.439 321.169 498.687 305.599 491.812 296.653C488.104 291.838 482.679 289.976 476.977 288.327C472.777 287.188 467.77 286.305 466.015 290.113L466.021 290.111ZM427.082 260.972C411.915 252.842 391.602 244.823 371.108 245.019C383.648 274.67 374.285 292.103 372.671 294.749C389.705 293.726 406.058 298.498 418.142 303.515C420.723 304.586 423.193 305.702 425.537 306.833C433.656 310.675 441.56 315.397 449.141 320.937C451.231 323.07 453.446 325.006 455.759 326.724L456.252 327.082L456.86 327.498C458.911 328.883 461.057 329.982 462.853 330.141C464.078 330.129 465.253 329.811 466.305 329.205C468.227 328.201 470.038 326.961 471.714 325.501L472.031 325.239L472.408 324.905L472.677 324.667C475.633 322.003 478.264 318.831 479.315 316.29L479.451 315.92C479.521 315.731 479.582 315.535 479.633 315.351L479.648 315.293C479.674 315.18 479.702 315.074 479.717 314.972C479.917 313.949 479.768 313.198 479.234 312.626C476.835 310.115 475.365 310.166 473.643 311.336L473.321 311.564L473.502 311.672L473.315 311.566L473.095 311.743L472.792 311.983C472.423 312.28 472.034 312.618 471.618 312.983C471.076 313.45 470.54 313.933 469.882 314.43L469.429 314.807C467.801 316.132 466.374 317.762 465.191 319.647L465.004 319.946L464.825 320.268C464.745 320.4 464.675 320.54 464.615 320.688L464.461 321.046L450.847 309.868L451.011 309.542L451.172 309.208L464.174 319.893L464.226 319.796C461.091 317.307 458.953 314.852 459.269 313.017C459.331 312.654 459.379 312.269 459.422 311.869C459.587 310.251 459.802 308.405 461.335 307.631C462.392 307.083 464.261 306.893 468.67 308.815C465.404 306.097 462.811 303.29 462.112 300.838C461.936 300.271 461.874 299.679 461.932 299.115C461.99 298.551 462.166 298.034 462.445 297.609C463.69 295.576 467.498 296.192 471.981 297.897C468.62 295.482 466.013 293.163 465.384 291.348C465.274 291.064 465.217 290.762 465.218 290.466C465.218 290.17 465.277 289.887 465.388 289.641C465.654 289.065 466.002 288.557 466.417 288.136C454.001 277.434 440.804 268.32 427.082 260.972Z" fill="#1B1147"/>
<path d="M349.827 151.138L335.571 213.513C330.42 214.42 325.127 214.056 320.149 212.452C315.171 210.848 310.658 208.052 307 204.307L322.307 142.482C332.004 77.5471 354.955 73.4608 373.838 87.7771C392.721 102.093 382.003 146.066 368.228 152.712C354.454 159.359 332.476 139.903 332.476 139.903" fill="white"/>
<path d="M349.827 151.138L335.571 213.513C330.42 214.42 325.127 214.056 320.149 212.452C315.171 210.848 310.658 208.052 307 204.307L322.307 142.482C332.004 77.5471 354.955 73.4608 373.838 87.7771C392.721 102.093 382.003 146.066 368.228 152.712C354.454 159.359 332.476 139.903 332.476 139.903" stroke="black" stroke-miterlimit="10"/>
<path d="M370 111L369 132" stroke="black" stroke-miterlimit="10"/>
<path d="M362 115C363.105 115 364 113.657 364 112C364 110.343 363.105 109 362 109C360.895 109 360 110.343 360 112C360 113.657 360.895 115 362 115Z" fill="black"/>
<path d="M378 116C379.105 116 380 114.657 380 113C380 111.343 379.105 110 378 110C376.895 110 376 111.343 376 113C376 114.657 376.895 116 378 116Z" fill="black"/>
<path d="M348.248 160C348.248 160 334.839 153.828 333 140C333 140 344.59 149.486 350 150.765L348.248 160Z" fill="black"/>
<path d="M322.5 115C353.704 115 379 89.2564 379 57.5C379 25.7436 353.704 0 322.5 0C291.296 0 266 25.7436 266 57.5C266 89.2564 291.296 115 322.5 115Z" fill="black"/>
<path d="M341.5 126C343.82 135.02 347.503 137.404 356 139.5" stroke="black"/>
</svg>
