<svg width="385" height="703" viewBox="0 0 385 703" fill="none" xmlns="http://www.w3.org/2000/svg">
<path d="M312.596 251.458L313.083 251.443C313.101 251.265 313.401 248.027 311.332 244.493C312.283 245.185 313.433 245.56 314.657 245.578C315.881 245.595 317.132 245.255 318.273 244.593L318.051 244.169C317.897 244.273 314.218 246.668 310.632 243.241L310.553 243.32C309.912 242.451 309.183 241.662 308.376 240.964L308.036 241.376C313.107 245.792 312.602 251.399 312.596 251.458Z" fill="#1B1147"/>
<path d="M258.067 227.003C252.851 227.708 247.132 229.58 240.94 233.11L241.132 233.555C260.293 222.574 274.94 227.769 283.879 234.094C283.984 234.163 284.086 234.237 284.188 234.31C290.049 238.623 294.995 244.111 298.791 250.512C297.963 253.485 292.077 275.019 295.694 275.89C296.005 275.964 296.334 275.965 296.661 275.891C296.987 275.818 297.304 275.673 297.588 275.467C301.212 273.025 304.44 261.847 305.291 258.697C306.702 262.696 313.391 280.862 319.256 281.199C319.54 281.255 319.843 281.215 320.125 281.085C320.407 280.955 320.654 280.74 320.833 280.471C322.028 278.514 319.591 272.51 316.864 267.102C320.11 271.92 323.985 276.813 326.601 277.233C326.85 277.286 327.112 277.282 327.371 277.221C327.63 277.16 327.881 277.044 328.107 276.881C328.295 276.728 328.455 276.541 328.579 276.329C328.703 276.117 328.787 275.886 328.826 275.65C329.42 272.873 326.491 266.718 323.563 261.48C327.735 266.989 333.202 272.761 336.431 270.506C336.638 270.358 336.816 270.167 336.953 269.946C337.089 269.726 337.181 269.481 337.22 269.231C337.8 266.395 334.289 260.198 330.941 255.103C340.541 266.95 341.381 266.308 343.958 264.336C344.058 264.259 344.143 264.16 344.207 264.049C344.271 263.937 344.312 263.815 344.327 263.691C344.967 260.066 331.276 242.97 330.69 242.248C330.593 242.086 319.235 223.798 301.529 210.026C300.539 209.254 299.563 208.498 298.553 207.799C289.116 201.013 279.594 196.789 270.212 195.231C257.222 193.068 244.483 196.046 232.322 204.06L232.544 204.488C240.848 199.02 248.945 196.264 256.654 195.424C267.749 213.613 258.889 225.934 258.067 227.003ZM257.233 195.369C274.642 193.684 290.039 201.737 301.22 210.457C318.89 224.174 330.175 242.391 330.294 242.585C334.243 247.512 344.333 260.858 343.852 263.662C343.849 263.714 343.835 263.766 343.811 263.814C343.787 263.861 343.753 263.904 343.712 263.938C341.046 265.967 340.432 266.447 325.379 247.281L324.984 247.635C325.121 247.792 337.729 264.279 336.725 269.18C336.7 269.356 336.638 269.53 336.543 269.687C336.448 269.843 336.323 269.979 336.178 270.085C332.19 272.873 323.903 261.419 320.149 255.743C319.091 254.043 318.339 252.898 318.219 252.724L317.805 253.042C317.921 253.239 318.652 254.441 319.769 256.136C323.055 261.406 329.143 271.901 328.37 275.591C328.345 275.759 328.287 275.924 328.201 276.075C328.114 276.226 328.001 276.36 327.868 276.469C327.7 276.591 327.512 276.676 327.319 276.718C327.126 276.761 326.931 276.761 326.748 276.718C323.174 276.145 316.812 266.279 313.519 260.777C312.377 258.741 311.537 257.342 311.41 257.138L310.982 257.44C311.105 257.653 311.971 259.219 313.265 261.386C316.936 267.947 321.881 277.887 320.452 280.224C320.245 280.56 319.887 280.709 319.367 280.695C313.203 280.341 305.605 257.974 305.527 257.746L305.274 256.984L305.05 257.803C305.012 257.948 301.331 272.369 297.379 275.031C297.155 275.199 296.905 275.317 296.646 275.378C296.386 275.44 296.124 275.443 295.877 275.387C293.45 274.785 296.597 260.179 299.311 250.497L299.339 250.391L299.277 250.321C295.379 243.711 290.263 238.066 284.187 233.67C278.156 229.407 269.532 225.646 258.697 226.927C260.409 224.466 267.501 212.443 257.233 195.369Z" fill="#1B1147"/>
<path d="M68.1135 202.941L67.5839 202.725C67.5784 202.544 67.502 199.25 70.0312 196.642C68.9416 196.929 67.6588 196.823 66.3232 196.337C64.9875 195.85 63.6504 195.002 62.4579 193.884L62.7331 193.561C62.8923 193.725 66.7173 197.584 70.8912 195.706L70.9716 195.815C71.7378 195.228 72.5937 194.756 73.5271 194.405L73.8654 194.948C67.9958 197.184 68.1116 202.881 68.1135 202.941Z" fill="#1B1147"/>
<path d="M129.339 197.387C134.8 199.773 140.629 203.418 146.722 208.773L146.452 209.127C127.607 192.501 111.228 192.525 100.774 195.495C100.652 195.526 100.532 195.56 100.413 195.595C93.5353 197.698 87.4618 201.205 82.483 205.947C82.9355 209.007 86.088 231.13 82.1026 230.749C81.761 230.716 81.4094 230.608 81.0715 230.431C80.7337 230.255 80.4175 230.014 80.1445 229.727C76.6327 226.24 74.8115 214.7 74.361 211.466C72.2762 214.747 62.5028 229.556 56.1974 227.932C55.887 227.891 55.5695 227.753 55.2876 227.538C55.0058 227.322 54.7732 227.04 54.6212 226.729C53.6302 224.5 57.1017 219.68 60.7959 215.515C56.6338 218.956 51.7899 222.258 48.9377 221.787C48.6654 221.754 48.3864 221.664 48.1187 221.521C47.851 221.379 47.6005 221.187 47.3832 220.959C47.2048 220.754 47.0606 220.525 46.9592 220.286C46.8579 220.047 46.8017 219.802 46.794 219.568C46.5637 216.769 50.5816 211.971 54.4662 208.031C49.2155 211.814 42.546 215.414 39.4289 212.233C39.2294 212.026 39.0669 211.788 38.9533 211.536C38.8397 211.284 38.7778 211.025 38.7723 210.778C38.5647 207.928 43.21 203.283 47.521 199.617C35.5604 207.543 34.7576 206.663 32.2951 203.963C32.1995 203.858 32.1231 203.738 32.0712 203.612C32.0194 203.486 31.9934 203.358 31.9953 203.237C31.8388 199.629 48.9252 188.138 49.6547 187.655C49.7816 187.535 64.5531 174.157 85.4396 167.108C86.6082 166.712 87.7595 166.326 88.9379 166.005C99.99 162.768 110.76 161.959 120.995 163.602C135.166 165.871 148.323 172.874 160.132 184.404L159.833 184.732C151.769 176.862 143.532 171.603 135.43 168.266C120.954 181.639 128.616 196.114 129.339 197.387ZM134.821 168.023C116.494 160.687 98.8998 163.141 85.7068 167.613C64.8659 174.622 50.1837 187.959 50.0288 188.102C45.1006 191.412 32.3995 200.58 32.5062 203.367C32.5014 203.416 32.5088 203.47 32.5277 203.522C32.5467 203.575 32.5767 203.626 32.6153 203.671C35.1644 206.455 35.75 207.107 54.5901 194.128L54.9602 194.589C54.7905 194.692 38.9476 205.97 39.3074 210.893C39.3083 211.067 39.3496 211.25 39.428 211.429C39.5064 211.607 39.6199 211.776 39.7601 211.923C43.6093 215.853 54.1118 207.862 58.9405 203.785C60.3158 202.543 61.284 201.719 61.438 201.595L61.8329 202.029C61.6812 202.176 60.7268 203.06 59.2888 204.279C55.019 208.13 47.0008 215.95 47.2898 219.664C47.2921 219.83 47.3295 220.003 47.3997 220.173C47.4699 220.343 47.5713 220.507 47.6975 220.652C47.8596 220.822 48.0469 220.963 48.2468 221.067C48.4467 221.172 48.6546 221.236 48.8567 221.256C52.7517 221.901 60.9712 214.761 65.282 210.694C66.7959 209.164 67.8954 208.131 68.0607 207.982L68.473 208.406C68.3105 208.566 67.16 209.747 65.4644 211.349C60.5965 216.283 53.8787 223.961 55.0632 226.623C55.2356 227.006 55.5957 227.264 56.1522 227.423C62.7793 229.13 74.1311 210.685 74.2479 210.498L74.6286 209.867L74.748 210.708C74.7675 210.857 76.6014 225.586 80.4301 229.388C80.6448 229.619 80.8945 229.812 81.1622 229.955C81.4298 230.099 81.7092 230.188 81.9812 230.218C84.6568 230.456 83.4207 215.73 81.9313 205.761L81.9165 205.653L81.9927 205.607C87.1104 200.703 93.387 197.106 100.507 194.996C107.56 192.996 117.305 192.324 128.678 197.107C127.208 194.235 121.388 180.625 134.821 168.023Z" fill="#1B1147"/>
<path d="M253.502 269.387C249.812 270.025 148.731 262.276 123.827 260.347L118.32 259.911L123.831 250.273L153.286 198.759L160.244 186.616L183.774 145.472L203.595 147.716C203.595 147.716 207.267 155.941 212.65 168.126C213.877 170.924 215.195 173.904 216.578 177.08C222.118 189.672 228.71 204.87 234.803 219.221C237.034 224.528 239.233 229.737 241.264 234.625C249.274 254.082 254.966 269.121 253.502 269.387Z" fill="#FFCC66"/>
<path d="M206.15 104.368L205.217 150.656C201.702 152.056 197.898 152.576 194.135 152.171C190.372 151.766 186.764 150.449 183.622 148.333L185.38 102.281C182.706 54.8491 198.366 48.5806 213.848 55.9482C229.331 63.3157 228.2 96.0457 219.418 102.779C210.636 109.512 192.205 98.9587 192.205 98.9587" fill="#FFF5EF"/>
<path d="M206.15 104.368L205.217 150.656C201.702 152.056 197.898 152.576 194.135 152.171C190.372 151.766 186.764 150.449 183.622 148.333L185.38 102.281C182.706 54.8491 198.366 48.5806 213.848 55.9482C229.331 63.3157 228.2 96.0457 219.418 102.779C210.636 109.512 192.205 98.9587 192.205 98.9587" stroke="black" stroke-miterlimit="10"/>
<path d="M214.542 72.9653L216.92 87.9907" stroke="black" stroke-miterlimit="10"/>
<path d="M209.902 77.7334C210.834 77.54 211.355 76.2495 211.065 74.8511C210.775 73.4528 209.784 72.4759 208.851 72.6693C207.919 72.8627 207.399 74.1531 207.689 75.5515C207.979 76.9499 208.97 77.9268 209.902 77.7334Z" fill="black"/>
<path d="M221.385 76.0889C222.317 75.8955 222.837 74.605 222.547 73.2066C222.257 71.8082 221.266 70.8314 220.334 71.0248C219.402 71.2182 218.881 72.5086 219.171 73.907C219.461 75.3054 220.452 76.2823 221.385 76.0889Z" fill="black"/>
<path d="M206.334 110.88C206.334 110.88 195.926 108.478 192.591 98.9512C192.591 98.9512 202.196 103.969 206.217 104.08L206.334 110.88Z" fill="black"/>
<path d="M181.477 82.7817C203.585 78.1952 217.723 56.2379 213.055 33.7387C208.387 11.2395 186.682 -3.28167 164.574 1.30482C142.466 5.8913 128.328 27.8486 132.995 50.3478C137.663 72.847 159.369 87.3682 181.477 82.7817Z" fill="black"/>
<path d="M196.555 87.7822C199.524 93.8319 202.485 94.9797 208.812 95.2156" stroke="black"/>
<path d="M207.427 225.565L203.901 219.8C191.361 199.382 183.079 185.912 186.992 174.009C190.18 164.309 200.849 159.372 211.24 162.788C217.111 164.717 221.906 169.12 224.258 174.36C229.261 171.538 235.733 170.839 241.604 172.769C251.994 176.184 257.654 186.489 254.465 196.188C250.553 208.092 235.894 214.021 213.675 223.047L207.427 225.565Z" fill="#FF9C9C"/>
<path d="M225.355 256.501C197.763 234.261 162.361 248.333 156.794 289.946C151.227 331.558 239.957 626.091 239.957 626.091L384 579.27C384 579.27 252.947 278.741 225.355 256.501Z" fill="#6935FF" stroke="white"/>
<path d="M248.575 300.052C241.058 255.758 201.494 231.009 167.606 256.784C133.718 282.558 1.28813 592.919 1.28813 592.919L154.938 701.477C154.938 701.477 256.092 344.346 248.575 300.052Z" fill="#6935FF" stroke="white"/>
</svg>
