<svg width="40" height="39" viewBox="0 0 40 39" fill="none" xmlns="http://www.w3.org/2000/svg">
<path d="M38 19.5263C38 29.1268 29.9917 37 20 37C10.0083 37 2 29.1268 2 19.5263C2 9.92579 10.0083 2.05261 20 2.05261C29.9917 2.05261 38 9.92579 38 19.5263Z" stroke="white" stroke-width="4"/>
<path d="M20.9046 13.76V29H17.9796V13.76H20.9046ZM21.4596 9.05C21.4596 9.32 21.4046 9.58 21.2946 9.83C21.1846 10.07 21.0346 10.285 20.8446 10.475C20.6646 10.655 20.4496 10.8 20.1996 10.91C19.9496 11.01 19.6896 11.06 19.4196 11.06C19.1496 11.06 18.8946 11.01 18.6546 10.91C18.4146 10.8 18.1996 10.655 18.0096 10.475C17.8296 10.285 17.6846 10.07 17.5746 9.83C17.4746 9.58 17.4246 9.32 17.4246 9.05C17.4246 8.77 17.4746 8.51 17.5746 8.27C17.6846 8.02 17.8296 7.805 18.0096 7.625C18.1996 7.435 18.4146 7.29 18.6546 7.19C18.8946 7.08 19.1496 7.025 19.4196 7.025C19.6896 7.025 19.9496 7.08 20.1996 7.19C20.4496 7.29 20.6646 7.435 20.8446 7.625C21.0346 7.805 21.1846 8.02 21.2946 8.27C21.4046 8.51 21.4596 8.77 21.4596 9.05Z" fill="white"/>
</svg>
