<svg xmlns="http://www.w3.org/2000/svg" width="22" height="22" viewBox="0 0 22 22" fill="none">
  <path d="M13.1371 1.73807C12.3941 2.48107 12.0091 3.77607 12.2891 4.79007C12.4381 5.32607 12.4621 5.97507 12.0691 6.36907L6.36907 12.0691C5.97507 12.4621 5.32607 12.4381 4.78907 12.2891C3.77607 12.0091 2.48107 12.3941 1.73807 13.1371C1.50412 13.371 1.31853 13.6486 1.19189 13.9542C1.06525 14.2598 1.00005 14.5874 1 14.9182C0.999906 15.5863 1.26522 16.2271 1.73757 16.6996C2.20992 17.1721 2.85062 17.4375 3.51871 17.4376C4.18681 17.4377 4.82759 17.1724 5.30007 16.7001C4.82772 17.1726 4.56241 17.8133 4.5625 18.4814C4.56259 19.1495 4.82808 19.7902 5.30057 20.2626C5.77305 20.7349 6.41382 21.0002 7.08192 21.0001C7.75002 21 8.39072 20.7346 8.86307 20.2621C9.60607 19.5191 9.99107 18.2241 9.71107 17.2101C9.56207 16.6741 9.53807 16.0251 9.93107 15.6311L15.6311 9.93107C16.0251 9.53807 16.6741 9.56207 17.2111 9.71107C18.2241 9.99107 19.5191 9.60607 20.2621 8.86307C20.7346 8.39072 21 7.75002 21.0001 7.08192C21.0002 6.41382 20.7349 5.77305 20.2626 5.30057C20.0287 5.06662 19.751 4.88103 19.4454 4.75439C19.1398 4.62775 18.8122 4.56255 18.4814 4.5625C17.8133 4.56241 17.1726 4.82772 16.7001 5.30007C17.1724 4.82758 17.4377 4.18681 17.4376 3.51871C17.4375 2.85062 17.172 2.20992 16.6996 1.73757C16.2271 1.26522 15.5863 0.999906 14.9182 1C14.2501 1.00009 13.6094 1.26558 13.1371 1.73807Z" stroke="#464646" stroke-width="2" stroke-linecap="round" stroke-linejoin="round"/>
</svg>