<svg xmlns="http://www.w3.org/2000/svg" width="28" height="18" viewBox="0 0 28 18" fill="none">
  <path d="M6.5 6V12M5 1.5H21.5C22.2956 1.5 23.0587 1.81607 23.6213 2.37868C24.1839 2.94129 24.5 3.70435 24.5 4.5V5.25C24.5 5.44891 24.579 5.63968 24.7197 5.78033C24.8603 5.92098 25.0511 6 25.25 6C25.4489 6 25.6397 6.07902 25.7803 6.21967C25.921 6.36032 26 6.55109 26 6.75V11.25C26 11.4489 25.921 11.6397 25.7803 11.7803C25.6397 11.921 25.4489 12 25.25 12C25.0511 12 24.8603 12.079 24.7197 12.2197C24.579 12.3603 24.5 12.5511 24.5 12.75V13.5C24.5 14.2956 24.1839 15.0587 23.6213 15.6213C23.0587 16.1839 22.2956 16.5 21.5 16.5H5C4.20435 16.5 3.44129 16.1839 2.87868 15.6213C2.31607 15.0587 2 14.2956 2 13.5V4.5C2 3.70435 2.31607 2.94129 2.87868 2.37868C3.44129 1.81607 4.20435 1.5 5 1.5Z" stroke="black" stroke-width="3" stroke-linecap="round" stroke-linejoin="round"/>
</svg>