<svg xmlns="http://www.w3.org/2000/svg" width="25" height="26" viewBox="0 0 25 26" fill="none">
  <path d="M6.4093 7.50183C6.4093 3.87508 9.38372 0.935547 13.0535 0.935547C16.4721 0.935547 19.2872 3.48671 19.6581 6.76694C22.2581 7.65648 24.1279 10.0995 24.1279 12.9739C24.1295 14.1617 23.8045 15.327 23.1884 16.3425H24.1279C24.3592 16.3425 24.581 16.4344 24.7446 16.598C24.9081 16.7615 25 16.9833 25 17.2146C25 17.4459 24.9081 17.6677 24.7446 17.8313C24.581 17.9948 24.3592 18.0867 24.1279 18.0867H0.872093C0.6408 18.0867 0.418979 17.9948 0.25543 17.8313C0.091881 17.6677 0 17.4459 0 17.2146C0 16.9833 0.091881 16.7615 0.25543 16.598C0.418979 16.4344 0.6408 16.3425 0.872093 16.3425H1.18721C0.9783 15.7908 0.871522 15.2057 0.872093 14.6158C0.872093 11.8948 3.10349 9.6902 5.85581 9.6902C6.18605 9.6902 6.5093 9.72276 6.82093 9.78322C6.54778 9.05366 6.40834 8.28084 6.4093 7.50183ZM4.36047 19.8309C4.12917 19.8309 3.90735 19.9228 3.7438 20.0863C3.58025 20.2499 3.48837 20.4717 3.48837 20.703C3.48837 20.9343 3.58025 21.1561 3.7438 21.3197C3.90735 21.4832 4.12917 21.5751 4.36047 21.5751H20.6395C20.8708 21.5751 21.0926 21.4832 21.2562 21.3197C21.4197 21.1561 21.5116 20.9343 21.5116 20.703C21.5116 20.4717 21.4197 20.2499 21.2562 20.0863C21.0926 19.9228 20.8708 19.8309 20.6395 19.8309H4.36047ZM7.84884 23.3193C7.61754 23.3193 7.39572 23.4111 7.23217 23.5747C7.06862 23.7382 6.97674 23.9601 6.97674 24.1914C6.97674 24.4227 7.06862 24.6445 7.23217 24.808C7.39572 24.9716 7.61754 25.0635 7.84884 25.0635H17.1512C17.3825 25.0635 17.6043 24.9716 17.7678 24.808C17.9314 24.6445 18.0233 24.4227 18.0233 24.1914C18.0233 23.9601 17.9314 23.7382 17.7678 23.5747C17.6043 23.4111 17.3825 23.3193 17.1512 23.3193H7.84884Z" fill="black"/>
</svg>