<svg width="601" height="321" viewBox="0 0 601 321" fill="none" xmlns="http://www.w3.org/2000/svg">
<path d="M16.3927 0.585785C15.6117 -0.195251 14.3453 -0.195251 13.5643 0.585785L0.836364 13.3137C0.0553157 14.0948 0.0553158 15.3611 0.836365 16.1422C1.61741 16.9232 2.88374 16.9232 3.66479 16.1422L14.9785 4.82843L26.2922 16.1422C27.0733 16.9232 28.3396 16.9232 29.1206 16.1422C29.9017 15.3611 29.9017 14.0948 29.1206 13.3137L16.3927 0.585785ZM16.9785 292L16.9785 2L12.9785 2L12.9785 292L16.9785 292Z" fill="#939393"/>
<path d="M600.414 292.647C601.195 291.866 601.195 290.599 600.414 289.818L587.686 277.09C586.905 276.309 585.639 276.309 584.858 277.09C584.077 277.871 584.077 279.138 584.858 279.919L596.172 291.232L584.858 302.546C584.077 303.327 584.077 304.594 584.858 305.375C585.639 306.156 586.905 306.156 587.686 305.375L600.414 292.647ZM14 293.232L599 293.232V289.232L14 289.232V293.232Z" fill="#939393"/>
<path d="M42.74 305.67V320H41.04V309.47C41.04 309.33 41.0433 309.18 41.05 309.02C41.0633 308.86 41.0767 308.697 41.09 308.53L36.17 317.49C36.0167 317.79 35.7833 317.94 35.47 317.94H35.19C34.8767 317.94 34.6433 317.79 34.49 317.49L29.47 308.49C29.51 308.843 29.53 309.17 29.53 309.47V320H27.83V305.67H29.26C29.4333 305.67 29.5667 305.687 29.66 305.72C29.7533 305.753 29.8433 305.847 29.93 306L34.88 314.82C34.96 314.98 35.0367 315.147 35.11 315.32C35.19 315.493 35.2633 315.67 35.33 315.85C35.3967 315.67 35.4667 315.493 35.54 315.32C35.6133 315.14 35.6933 314.97 35.78 314.81L40.64 306C40.72 305.847 40.8067 305.753 40.9 305.72C41 305.687 41.1367 305.67 41.31 305.67H42.74ZM49.9417 309.71C50.6817 309.71 51.3484 309.833 51.9417 310.08C52.5351 310.327 53.0417 310.677 53.4617 311.13C53.8817 311.583 54.2017 312.133 54.4217 312.78C54.6484 313.42 54.7617 314.137 54.7617 314.93C54.7617 315.73 54.6484 316.45 54.4217 317.09C54.2017 317.73 53.8817 318.277 53.4617 318.73C53.0417 319.183 52.5351 319.533 51.9417 319.78C51.3484 320.02 50.6817 320.14 49.9417 320.14C49.1951 320.14 48.5217 320.02 47.9217 319.78C47.3284 319.533 46.8217 319.183 46.4017 318.73C45.9817 318.277 45.6584 317.73 45.4317 317.09C45.2117 316.45 45.1017 315.73 45.1017 314.93C45.1017 314.137 45.2117 313.42 45.4317 312.78C45.6584 312.133 45.9817 311.583 46.4017 311.13C46.8217 310.677 47.3284 310.327 47.9217 310.08C48.5217 309.833 49.1951 309.71 49.9417 309.71ZM49.9417 318.75C50.9417 318.75 51.6884 318.417 52.1817 317.75C52.6751 317.077 52.9217 316.14 52.9217 314.94C52.9217 313.733 52.6751 312.793 52.1817 312.12C51.6884 311.447 50.9417 311.11 49.9417 311.11C49.4351 311.11 48.9917 311.197 48.6117 311.37C48.2384 311.543 47.9251 311.793 47.6717 312.12C47.4251 312.447 47.2384 312.85 47.1117 313.33C46.9917 313.803 46.9317 314.34 46.9317 314.94C46.9317 316.14 47.1784 317.077 47.6717 317.75C48.1717 318.417 48.9284 318.75 49.9417 318.75ZM58.6994 311.34C58.9194 311.093 59.1527 310.87 59.3994 310.67C59.646 310.47 59.906 310.3 60.1794 310.16C60.4594 310.013 60.7527 309.903 61.0594 309.83C61.3727 309.75 61.7094 309.71 62.0694 309.71C62.6227 309.71 63.1094 309.803 63.5294 309.99C63.956 310.17 64.3094 310.43 64.5894 310.77C64.876 311.103 65.0927 311.507 65.2394 311.98C65.386 312.453 65.4594 312.977 65.4594 313.55V320H63.6694V313.55C63.6694 312.783 63.4927 312.19 63.1394 311.77C62.7927 311.343 62.2627 311.13 61.5494 311.13C61.0227 311.13 60.5294 311.257 60.0694 311.51C59.616 311.763 59.196 312.107 58.8094 312.54V320H57.0194V309.87H58.0894C58.3427 309.87 58.4994 309.993 58.5594 310.24L58.6994 311.34Z" fill="black"/>
<path d="M128.52 307.3H123.88V320H121.95V307.3H117.3V305.67H128.52V307.3ZM136.467 309.87V320H135.407C135.153 320 134.993 319.877 134.927 319.63L134.787 318.54C134.347 319.027 133.853 319.42 133.307 319.72C132.76 320.013 132.133 320.16 131.427 320.16C130.873 320.16 130.383 320.07 129.957 319.89C129.537 319.703 129.183 319.443 128.897 319.11C128.61 318.777 128.393 318.373 128.247 317.9C128.107 317.427 128.037 316.903 128.037 316.33V309.87H129.817V316.33C129.817 317.097 129.99 317.69 130.337 318.11C130.69 318.53 131.227 318.74 131.947 318.74C132.473 318.74 132.963 318.617 133.417 318.37C133.877 318.117 134.3 317.77 134.687 317.33V309.87H136.467ZM146.069 313.83C146.069 313.417 146.009 313.04 145.889 312.7C145.776 312.353 145.606 312.057 145.379 311.81C145.159 311.557 144.889 311.363 144.569 311.23C144.249 311.09 143.886 311.02 143.479 311.02C142.626 311.02 141.949 311.27 141.449 311.77C140.956 312.263 140.649 312.95 140.529 313.83H146.069ZM147.509 318.58C147.289 318.847 147.026 319.08 146.719 319.28C146.412 319.473 146.082 319.633 145.729 319.76C145.382 319.887 145.022 319.98 144.649 320.04C144.276 320.107 143.906 320.14 143.539 320.14C142.839 320.14 142.192 320.023 141.599 319.79C141.012 319.55 140.502 319.203 140.069 318.75C139.642 318.29 139.309 317.723 139.069 317.05C138.829 316.377 138.709 315.603 138.709 314.73C138.709 314.023 138.816 313.363 139.029 312.75C139.249 312.137 139.562 311.607 139.969 311.16C140.376 310.707 140.872 310.353 141.459 310.1C142.046 309.84 142.706 309.71 143.439 309.71C144.046 309.71 144.606 309.813 145.119 310.02C145.639 310.22 146.086 310.513 146.459 310.9C146.839 311.28 147.136 311.753 147.349 312.32C147.562 312.88 147.669 313.52 147.669 314.24C147.669 314.52 147.639 314.707 147.579 314.8C147.519 314.893 147.406 314.94 147.239 314.94H140.469C140.489 315.58 140.576 316.137 140.729 316.61C140.889 317.083 141.109 317.48 141.389 317.8C141.669 318.113 142.002 318.35 142.389 318.51C142.776 318.663 143.209 318.74 143.689 318.74C144.136 318.74 144.519 318.69 144.839 318.59C145.166 318.483 145.446 318.37 145.679 318.25C145.912 318.13 146.106 318.02 146.259 317.92C146.419 317.813 146.556 317.76 146.669 317.76C146.816 317.76 146.929 317.817 147.009 317.93L147.509 318.58Z" fill="black"/>
<path d="M219.4 305.67L214.93 320H213.19L209.56 309.07C209.527 308.963 209.493 308.85 209.46 308.73C209.433 308.61 209.403 308.483 209.37 308.35C209.337 308.483 209.303 308.61 209.27 308.73C209.237 308.85 209.203 308.963 209.17 309.07L205.52 320H203.78L199.31 305.67H200.92C201.093 305.67 201.237 305.713 201.35 305.8C201.47 305.887 201.547 305.997 201.58 306.13L204.54 316.09C204.587 316.27 204.63 316.463 204.67 316.67C204.717 316.877 204.76 317.097 204.8 317.33C204.847 317.097 204.893 316.877 204.94 316.67C204.993 316.457 205.05 316.263 205.11 316.09L208.48 306.13C208.52 306.017 208.597 305.913 208.71 305.82C208.83 305.72 208.973 305.67 209.14 305.67H209.7C209.873 305.67 210.013 305.713 210.12 305.8C210.227 305.887 210.307 305.997 210.36 306.13L213.72 316.09C213.78 316.263 213.833 316.45 213.88 316.65C213.933 316.85 213.983 317.06 214.03 317.28C214.063 317.06 214.1 316.85 214.14 316.65C214.18 316.45 214.223 316.263 214.27 316.09L217.24 306.13C217.273 306.01 217.347 305.903 217.46 305.81C217.58 305.717 217.723 305.67 217.89 305.67H219.4ZM226.76 313.83C226.76 313.417 226.7 313.04 226.58 312.7C226.467 312.353 226.297 312.057 226.07 311.81C225.85 311.557 225.58 311.363 225.26 311.23C224.94 311.09 224.577 311.02 224.17 311.02C223.317 311.02 222.64 311.27 222.14 311.77C221.647 312.263 221.34 312.95 221.22 313.83H226.76ZM228.2 318.58C227.98 318.847 227.717 319.08 227.41 319.28C227.104 319.473 226.774 319.633 226.42 319.76C226.074 319.887 225.714 319.98 225.34 320.04C224.967 320.107 224.597 320.14 224.23 320.14C223.53 320.14 222.884 320.023 222.29 319.79C221.704 319.55 221.194 319.203 220.76 318.75C220.334 318.29 220 317.723 219.76 317.05C219.52 316.377 219.4 315.603 219.4 314.73C219.4 314.023 219.507 313.363 219.72 312.75C219.94 312.137 220.254 311.607 220.66 311.16C221.067 310.707 221.564 310.353 222.15 310.1C222.737 309.84 223.397 309.71 224.13 309.71C224.737 309.71 225.297 309.813 225.81 310.02C226.33 310.22 226.777 310.513 227.15 310.9C227.53 311.28 227.827 311.753 228.04 312.32C228.254 312.88 228.36 313.52 228.36 314.24C228.36 314.52 228.33 314.707 228.27 314.8C228.21 314.893 228.097 314.94 227.93 314.94H221.16C221.18 315.58 221.267 316.137 221.42 316.61C221.58 317.083 221.8 317.48 222.08 317.8C222.36 318.113 222.694 318.35 223.08 318.51C223.467 318.663 223.9 318.74 224.38 318.74C224.827 318.74 225.21 318.69 225.53 318.59C225.857 318.483 226.137 318.37 226.37 318.25C226.604 318.13 226.797 318.02 226.95 317.92C227.11 317.813 227.247 317.76 227.36 317.76C227.507 317.76 227.62 317.817 227.7 317.93L228.2 318.58ZM237.147 312.28C236.813 311.833 236.453 311.523 236.067 311.35C235.68 311.17 235.247 311.08 234.767 311.08C233.827 311.08 233.103 311.417 232.597 312.09C232.09 312.763 231.837 313.723 231.837 314.97C231.837 315.63 231.893 316.197 232.007 316.67C232.12 317.137 232.287 317.523 232.507 317.83C232.727 318.13 232.997 318.35 233.317 318.49C233.637 318.63 234 318.7 234.407 318.7C234.993 318.7 235.503 318.567 235.937 318.3C236.377 318.033 236.78 317.657 237.147 317.17V312.28ZM238.927 305.27V320H237.867C237.613 320 237.453 319.877 237.387 319.63L237.227 318.4C236.793 318.92 236.3 319.34 235.747 319.66C235.193 319.98 234.553 320.14 233.827 320.14C233.247 320.14 232.72 320.03 232.247 319.81C231.773 319.583 231.37 319.253 231.037 318.82C230.703 318.387 230.447 317.847 230.267 317.2C230.087 316.553 229.997 315.81 229.997 314.97C229.997 314.223 230.097 313.53 230.297 312.89C230.497 312.243 230.783 311.683 231.157 311.21C231.53 310.737 231.987 310.367 232.527 310.1C233.073 309.827 233.687 309.69 234.367 309.69C234.987 309.69 235.517 309.797 235.957 310.01C236.403 310.217 236.8 310.507 237.147 310.88V305.27H238.927Z" fill="black"/>
<path d="M302.52 307.3H297.88V320H295.95V307.3H291.3V305.67H302.52V307.3ZM305.841 311.22C306.274 310.76 306.754 310.393 307.281 310.12C307.807 309.847 308.414 309.71 309.101 309.71C309.654 309.71 310.141 309.803 310.561 309.99C310.987 310.17 311.341 310.43 311.621 310.77C311.907 311.103 312.124 311.507 312.271 311.98C312.417 312.453 312.491 312.977 312.491 313.55V320H310.701V313.55C310.701 312.783 310.524 312.19 310.171 311.77C309.824 311.343 309.294 311.13 308.581 311.13C308.054 311.13 307.561 311.257 307.101 311.51C306.647 311.763 306.227 312.107 305.841 312.54V320H304.051V305.27H305.841V311.22ZM323.533 309.87V320H322.473C322.22 320 322.06 319.877 321.993 319.63L321.853 318.54C321.413 319.027 320.92 319.42 320.373 319.72C319.826 320.013 319.2 320.16 318.493 320.16C317.94 320.16 317.45 320.07 317.023 319.89C316.603 319.703 316.25 319.443 315.963 319.11C315.676 318.777 315.46 318.373 315.313 317.9C315.173 317.427 315.103 316.903 315.103 316.33V309.87H316.883V316.33C316.883 317.097 317.056 317.69 317.403 318.11C317.756 318.53 318.293 318.74 319.013 318.74C319.54 318.74 320.03 318.617 320.483 318.37C320.943 318.117 321.366 317.77 321.753 317.33V309.87H323.533ZM328.045 311.9C328.365 311.207 328.759 310.667 329.225 310.28C329.692 309.887 330.262 309.69 330.935 309.69C331.149 309.69 331.352 309.713 331.545 309.76C331.745 309.807 331.922 309.88 332.075 309.98L331.945 311.31C331.905 311.477 331.805 311.56 331.645 311.56C331.552 311.56 331.415 311.54 331.235 311.5C331.055 311.46 330.852 311.44 330.625 311.44C330.305 311.44 330.019 311.487 329.765 311.58C329.519 311.673 329.295 311.813 329.095 312C328.902 312.18 328.725 312.407 328.565 312.68C328.412 312.947 328.272 313.253 328.145 313.6V320H326.355V309.87H327.375C327.569 309.87 327.702 309.907 327.775 309.98C327.849 310.053 327.899 310.18 327.925 310.36L328.045 311.9Z" fill="black"/>
<path d="M386.77 307.25V312.26H392.66V313.84H386.77V320H384.83V305.67H393.66V307.25H386.77ZM396.549 311.9C396.869 311.207 397.263 310.667 397.729 310.28C398.196 309.887 398.766 309.69 399.439 309.69C399.653 309.69 399.856 309.713 400.049 309.76C400.249 309.807 400.426 309.88 400.579 309.98L400.449 311.31C400.409 311.477 400.309 311.56 400.149 311.56C400.056 311.56 399.919 311.54 399.739 311.5C399.559 311.46 399.356 311.44 399.129 311.44C398.809 311.44 398.523 311.487 398.269 311.58C398.023 311.673 397.799 311.813 397.599 312C397.406 312.18 397.229 312.407 397.069 312.68C396.916 312.947 396.776 313.253 396.649 313.6V320H394.859V309.87H395.879C396.073 309.87 396.206 309.907 396.279 309.98C396.353 310.053 396.403 310.18 396.429 310.36L396.549 311.9ZM404.024 309.87V320H402.244V309.87H404.024ZM404.404 306.69C404.404 306.863 404.368 307.027 404.294 307.18C404.228 307.327 404.134 307.46 404.014 307.58C403.901 307.693 403.764 307.783 403.604 307.85C403.451 307.917 403.288 307.95 403.114 307.95C402.941 307.95 402.778 307.917 402.624 307.85C402.478 307.783 402.348 307.693 402.234 307.58C402.121 307.46 402.031 307.327 401.964 307.18C401.898 307.027 401.864 306.863 401.864 306.69C401.864 306.517 401.898 306.353 401.964 306.2C402.031 306.04 402.121 305.903 402.234 305.79C402.348 305.67 402.478 305.577 402.624 305.51C402.778 305.443 402.941 305.41 403.114 305.41C403.288 305.41 403.451 305.443 403.604 305.51C403.764 305.577 403.901 305.67 404.014 305.79C404.134 305.903 404.228 306.04 404.294 306.2C404.368 306.353 404.404 306.517 404.404 306.69Z" fill="black"/>
<path d="M465.16 307.91C465.1 308.01 465.033 308.087 464.96 308.14C464.893 308.187 464.81 308.21 464.71 308.21C464.597 308.21 464.463 308.153 464.31 308.04C464.157 307.927 463.963 307.803 463.73 307.67C463.503 307.53 463.227 307.403 462.9 307.29C462.58 307.177 462.19 307.12 461.73 307.12C461.297 307.12 460.913 307.18 460.58 307.3C460.253 307.413 459.977 307.57 459.75 307.77C459.53 307.97 459.363 308.207 459.25 308.48C459.137 308.747 459.08 309.037 459.08 309.35C459.08 309.75 459.177 310.083 459.37 310.35C459.57 310.61 459.83 310.833 460.15 311.02C460.477 311.207 460.843 311.37 461.25 311.51C461.663 311.643 462.083 311.783 462.51 311.93C462.943 312.077 463.363 312.243 463.77 312.43C464.183 312.61 464.55 312.84 464.87 313.12C465.197 313.4 465.457 313.743 465.65 314.15C465.85 314.557 465.95 315.057 465.95 315.65C465.95 316.277 465.843 316.867 465.63 317.42C465.417 317.967 465.103 318.443 464.69 318.85C464.283 319.257 463.78 319.577 463.18 319.81C462.587 320.043 461.91 320.16 461.15 320.16C460.217 320.16 459.37 319.993 458.61 319.66C457.85 319.32 457.2 318.863 456.66 318.29L457.22 317.37C457.273 317.297 457.337 317.237 457.41 317.19C457.49 317.137 457.577 317.11 457.67 317.11C457.757 317.11 457.853 317.147 457.96 317.22C458.073 317.287 458.2 317.373 458.34 317.48C458.48 317.587 458.64 317.703 458.82 317.83C459 317.957 459.203 318.073 459.43 318.18C459.663 318.287 459.927 318.377 460.22 318.45C460.513 318.517 460.843 318.55 461.21 318.55C461.67 318.55 462.08 318.487 462.44 318.36C462.8 318.233 463.103 318.057 463.35 317.83C463.603 317.597 463.797 317.32 463.93 317C464.063 316.68 464.13 316.323 464.13 315.93C464.13 315.497 464.03 315.143 463.83 314.87C463.637 314.59 463.38 314.357 463.06 314.17C462.74 313.983 462.373 313.827 461.96 313.7C461.547 313.567 461.127 313.433 460.7 313.3C460.273 313.16 459.853 313 459.44 312.82C459.027 312.64 458.66 312.407 458.34 312.12C458.02 311.833 457.76 311.477 457.56 311.05C457.367 310.617 457.27 310.083 457.27 309.45C457.27 308.943 457.367 308.453 457.56 307.98C457.76 307.507 458.047 307.087 458.42 306.72C458.8 306.353 459.263 306.06 459.81 305.84C460.363 305.62 460.997 305.51 461.71 305.51C462.51 305.51 463.237 305.637 463.89 305.89C464.55 306.143 465.13 306.51 465.63 306.99L465.16 307.91ZM473.623 315.44C472.803 315.467 472.103 315.533 471.523 315.64C470.949 315.74 470.479 315.873 470.113 316.04C469.753 316.207 469.489 316.403 469.323 316.63C469.163 316.857 469.083 317.11 469.083 317.39C469.083 317.657 469.126 317.887 469.213 318.08C469.299 318.273 469.416 318.433 469.563 318.56C469.716 318.68 469.893 318.77 470.093 318.83C470.299 318.883 470.519 318.91 470.753 318.91C471.066 318.91 471.353 318.88 471.613 318.82C471.873 318.753 472.116 318.66 472.343 318.54C472.576 318.42 472.796 318.277 473.003 318.11C473.216 317.943 473.423 317.753 473.623 317.54V315.44ZM467.873 311.3C468.433 310.76 469.036 310.357 469.683 310.09C470.329 309.823 471.046 309.69 471.833 309.69C472.399 309.69 472.903 309.783 473.343 309.97C473.783 310.157 474.153 310.417 474.453 310.75C474.753 311.083 474.979 311.487 475.133 311.96C475.286 312.433 475.363 312.953 475.363 313.52V320H474.573C474.399 320 474.266 319.973 474.173 319.92C474.079 319.86 474.006 319.747 473.953 319.58L473.753 318.62C473.486 318.867 473.226 319.087 472.973 319.28C472.719 319.467 472.453 319.627 472.173 319.76C471.893 319.887 471.593 319.983 471.273 320.05C470.959 320.123 470.609 320.16 470.223 320.16C469.829 320.16 469.459 320.107 469.113 320C468.766 319.887 468.463 319.72 468.203 319.5C467.949 319.28 467.746 319.003 467.593 318.67C467.446 318.33 467.373 317.93 467.373 317.47C467.373 317.07 467.483 316.687 467.703 316.32C467.923 315.947 468.279 315.617 468.773 315.33C469.266 315.043 469.909 314.81 470.703 314.63C471.496 314.443 472.469 314.337 473.623 314.31V313.52C473.623 312.733 473.453 312.14 473.113 311.74C472.773 311.333 472.276 311.13 471.623 311.13C471.183 311.13 470.813 311.187 470.513 311.3C470.219 311.407 469.963 311.53 469.743 311.67C469.529 311.803 469.343 311.927 469.183 312.04C469.029 312.147 468.876 312.2 468.723 312.2C468.603 312.2 468.499 312.17 468.413 312.11C468.326 312.043 468.253 311.963 468.193 311.87L467.873 311.3ZM481.047 320.16C480.247 320.16 479.631 319.937 479.197 319.49C478.771 319.043 478.557 318.4 478.557 317.56V311.36H477.337C477.231 311.36 477.141 311.33 477.067 311.27C476.994 311.203 476.957 311.103 476.957 310.97V310.26L478.617 310.05L479.027 306.92C479.047 306.82 479.091 306.74 479.157 306.68C479.231 306.613 479.324 306.58 479.437 306.58H480.337V310.07H483.267V311.36H480.337V317.44C480.337 317.867 480.441 318.183 480.647 318.39C480.854 318.597 481.121 318.7 481.447 318.7C481.634 318.7 481.794 318.677 481.927 318.63C482.067 318.577 482.187 318.52 482.287 318.46C482.387 318.4 482.471 318.347 482.537 318.3C482.611 318.247 482.674 318.22 482.727 318.22C482.821 318.22 482.904 318.277 482.977 318.39L483.497 319.24C483.191 319.527 482.821 319.753 482.387 319.92C481.954 320.08 481.507 320.16 481.047 320.16Z" fill="black"/>
<path d="M543.16 307.91C543.1 308.01 543.033 308.087 542.96 308.14C542.893 308.187 542.81 308.21 542.71 308.21C542.597 308.21 542.463 308.153 542.31 308.04C542.157 307.927 541.963 307.803 541.73 307.67C541.503 307.53 541.227 307.403 540.9 307.29C540.58 307.177 540.19 307.12 539.73 307.12C539.297 307.12 538.913 307.18 538.58 307.3C538.253 307.413 537.977 307.57 537.75 307.77C537.53 307.97 537.363 308.207 537.25 308.48C537.137 308.747 537.08 309.037 537.08 309.35C537.08 309.75 537.177 310.083 537.37 310.35C537.57 310.61 537.83 310.833 538.15 311.02C538.477 311.207 538.843 311.37 539.25 311.51C539.663 311.643 540.083 311.783 540.51 311.93C540.943 312.077 541.363 312.243 541.77 312.43C542.183 312.61 542.55 312.84 542.87 313.12C543.197 313.4 543.457 313.743 543.65 314.15C543.85 314.557 543.95 315.057 543.95 315.65C543.95 316.277 543.843 316.867 543.63 317.42C543.417 317.967 543.103 318.443 542.69 318.85C542.283 319.257 541.78 319.577 541.18 319.81C540.587 320.043 539.91 320.16 539.15 320.16C538.217 320.16 537.37 319.993 536.61 319.66C535.85 319.32 535.2 318.863 534.66 318.29L535.22 317.37C535.273 317.297 535.337 317.237 535.41 317.19C535.49 317.137 535.577 317.11 535.67 317.11C535.757 317.11 535.853 317.147 535.96 317.22C536.073 317.287 536.2 317.373 536.34 317.48C536.48 317.587 536.64 317.703 536.82 317.83C537 317.957 537.203 318.073 537.43 318.18C537.663 318.287 537.927 318.377 538.22 318.45C538.513 318.517 538.843 318.55 539.21 318.55C539.67 318.55 540.08 318.487 540.44 318.36C540.8 318.233 541.103 318.057 541.35 317.83C541.603 317.597 541.797 317.32 541.93 317C542.063 316.68 542.13 316.323 542.13 315.93C542.13 315.497 542.03 315.143 541.83 314.87C541.637 314.59 541.38 314.357 541.06 314.17C540.74 313.983 540.373 313.827 539.96 313.7C539.547 313.567 539.127 313.433 538.7 313.3C538.273 313.16 537.853 313 537.44 312.82C537.027 312.64 536.66 312.407 536.34 312.12C536.02 311.833 535.76 311.477 535.56 311.05C535.367 310.617 535.27 310.083 535.27 309.45C535.27 308.943 535.367 308.453 535.56 307.98C535.76 307.507 536.047 307.087 536.42 306.72C536.8 306.353 537.263 306.06 537.81 305.84C538.363 305.62 538.997 305.51 539.71 305.51C540.51 305.51 541.237 305.637 541.89 305.89C542.55 306.143 543.13 306.51 543.63 306.99L543.16 307.91ZM554.404 309.87V320H553.344C553.091 320 552.931 319.877 552.864 319.63L552.724 318.54C552.284 319.027 551.791 319.42 551.244 319.72C550.697 320.013 550.071 320.16 549.364 320.16C548.811 320.16 548.321 320.07 547.894 319.89C547.474 319.703 547.121 319.443 546.834 319.11C546.547 318.777 546.331 318.373 546.184 317.9C546.044 317.427 545.974 316.903 545.974 316.33V309.87H547.754V316.33C547.754 317.097 547.927 317.69 548.274 318.11C548.627 318.53 549.164 318.74 549.884 318.74C550.411 318.74 550.901 318.617 551.354 318.37C551.814 318.117 552.237 317.77 552.624 317.33V309.87H554.404ZM558.906 311.34C559.126 311.093 559.36 310.87 559.606 310.67C559.853 310.47 560.113 310.3 560.386 310.16C560.666 310.013 560.96 309.903 561.266 309.83C561.58 309.75 561.916 309.71 562.276 309.71C562.83 309.71 563.316 309.803 563.736 309.99C564.163 310.17 564.516 310.43 564.796 310.77C565.083 311.103 565.3 311.507 565.446 311.98C565.593 312.453 565.666 312.977 565.666 313.55V320H563.876V313.55C563.876 312.783 563.7 312.19 563.346 311.77C563 311.343 562.47 311.13 561.756 311.13C561.23 311.13 560.736 311.257 560.276 311.51C559.823 311.763 559.403 312.107 559.016 312.54V320H557.226V309.87H558.296C558.55 309.87 558.706 309.993 558.766 310.24L558.906 311.34Z" fill="black"/>
<circle cx="128.5" cy="135.5" r="11.5" fill="#FFC562"/>
<circle cx="220.5" cy="210.5" r="11.5" fill="#FFC562"/>
<circle cx="312.5" cy="40.5" r="11.5" fill="#FFC562"/>
<circle cx="394.5" cy="210.5" r="11.5" fill="#FFC562"/>
<circle cx="467.5" cy="210.5" r="11.5" fill="#FFC562"/>
<circle cx="550.5" cy="135.5" r="11.5" fill="#FFC562"/>
<circle cx="49.5" cy="210.5" r="11.5" fill="#FFC562"/>
<circle cx="49.5" cy="40.5" r="11.5" fill="#97CC64"/>
<circle cx="127.5" cy="40.5" r="11.5" fill="#97CC64"/>
<circle cx="219.5" cy="40.5" r="11.5" fill="#97CC64"/>
<circle cx="312.5" cy="135.5" r="11.5" fill="#97CC64"/>
<circle cx="394.5" cy="135.5" r="11.5" fill="#97CC64"/>
<circle cx="467.5" cy="135.5" r="11.5" fill="#97CC64"/>
<circle cx="550.5" cy="210.5" r="11.5" fill="#97CC64"/>
<line x1="48.3115" y1="210.275" x2="127.311" y2="135.275" stroke="#FFC562" stroke-width="2"/>
<line x1="50" y1="40" x2="128" y2="40" stroke="#97CC64" stroke-width="2"/>
<line x1="128" y1="40" x2="220" y2="40" stroke="#97CC64" stroke-width="2"/>
<line x1="220.715" y1="40.3005" x2="313.715" y2="135.3" stroke="#97CC64" stroke-width="2"/>
<line x1="313" y1="135" x2="395" y2="135" stroke="#97CC64" stroke-width="2"/>
<line x1="395" y1="135" x2="468" y2="135" stroke="#97CC64" stroke-width="2"/>
<line x1="468.67" y1="135.258" x2="551.67" y2="210.258" stroke="#97CC64" stroke-width="2"/>
<line x1="128.632" y1="135.225" x2="220.632" y2="210.225" stroke="#FFC562" stroke-width="2"/>
<line x1="220.121" y1="210.524" x2="312.121" y2="40.524" stroke="#FFC562" stroke-width="2"/>
<line x1="394.099" y1="211.434" x2="312.099" y2="41.4344" stroke="#FFC562" stroke-width="2"/>
<line x1="395" y1="210" x2="468" y2="210" stroke="#FFC562" stroke-width="2"/>
<line x1="467.33" y1="210.258" x2="550.33" y2="135.258" stroke="#FFC562" stroke-width="2"/>
</svg>
