<svg xmlns="http://www.w3.org/2000/svg" width="24" height="27" viewBox="0 0 24 27" fill="none">
  <path d="M9.13043 24.989C6.56522 24.6593 4.40217 23.5165 2.6413 21.5604C0.880435 19.6044 0 17.2967 0 14.6374C0 13.1868 0.266087 11.8409 0.798261 10.5996C1.33043 9.35824 2.08609 8.26462 3.06522 7.31868L10.4348 0L17.8043 7.31868C18.587 8.10989 19.2339 9 19.7452 9.98901C20.2565 10.978 20.5987 12.044 20.7717 13.1868H18.1304C17.9783 12.4396 17.723 11.731 17.3648 11.0611C17.0065 10.3912 16.5443 9.7811 15.9783 9.23077L10.4348 3.69231L4.8913 9.23077C4.13043 9.95604 3.55957 10.7749 3.1787 11.6875C2.79783 12.6 2.60783 13.5833 2.6087 14.6374C2.6087 16.5494 3.23391 18.2308 4.48435 19.6813C5.73478 21.1319 7.28348 22.011 9.13043 22.3187V24.989ZM12.1304 18.6923L11.3478 16.8791C11.913 16.5714 12.5057 16.3187 13.1257 16.1209C13.7457 15.9231 14.3704 15.8242 15 15.8242C15.5 15.8242 15.9943 15.8848 16.483 16.0062C16.9717 16.1275 17.4448 16.2756 17.9022 16.4505C18.2935 16.6264 18.6904 16.7802 19.093 16.9121C19.4957 17.044 19.9139 17.1099 20.3478 17.1099C20.8478 17.1099 21.337 17.022 21.8152 16.8462C22.2935 16.6703 22.7609 16.4615 23.2174 16.2198L24 18.033C23.4348 18.3407 22.8426 18.5934 22.2235 18.7912C21.6043 18.989 20.9791 19.0879 20.3478 19.0879C19.8478 19.0879 19.3535 19.0277 18.8648 18.9073C18.3761 18.7868 17.903 18.6382 17.4457 18.4615C17.0543 18.2857 16.6574 18.1319 16.2548 18C15.8522 17.8681 15.4339 17.8022 15 17.8022C14.5 17.8022 14.0109 17.8901 13.5326 18.0659C13.0543 18.2418 12.587 18.4505 12.1304 18.6923ZM12.1304 22.6483L11.3478 20.8352C11.913 20.5275 12.5057 20.2747 13.1257 20.0769C13.7457 19.8791 14.3704 19.7802 15 19.7802C15.5 19.7802 15.9943 19.8409 16.483 19.9622C16.9717 20.0835 17.4448 20.2316 17.9022 20.4066C18.2935 20.5824 18.6904 20.7363 19.093 20.8681C19.4957 21 19.9139 21.0659 20.3478 21.0659C20.8478 21.0659 21.337 20.978 21.8152 20.8022C22.2935 20.6264 22.7609 20.4176 23.2174 20.1758L24 21.989C23.4348 22.2967 22.8426 22.5494 22.2235 22.7473C21.6043 22.9451 20.9791 23.044 20.3478 23.044C19.8478 23.044 19.3535 22.9833 18.8648 22.862C18.3761 22.7407 17.903 22.5925 17.4457 22.4176C17.0543 22.2418 16.6574 22.0879 16.2548 21.956C15.8522 21.8242 15.4339 21.7582 15 21.7582C14.5 21.7582 14.0109 21.8462 13.5326 22.022C13.0543 22.1978 12.587 22.4066 12.1304 22.6483ZM12.1304 26.6044L11.3478 24.7912C11.913 24.4835 12.5057 24.2308 13.1257 24.033C13.7457 23.8352 14.3704 23.7363 15 23.7363C15.5 23.7363 15.9943 23.7969 16.483 23.9182C16.9717 24.0396 17.4448 24.1877 17.9022 24.3626C18.2935 24.5385 18.6904 24.6923 19.093 24.8242C19.4957 24.956 19.9139 25.022 20.3478 25.022C20.8478 25.022 21.337 24.9341 21.8152 24.7582C22.2935 24.5824 22.7609 24.3736 23.2174 24.1319L24 25.9451C23.4348 26.2527 22.8426 26.5055 22.2235 26.7033C21.6043 26.9011 20.9791 27 20.3478 27C19.8478 27 19.3535 26.9393 18.8648 26.818C18.3761 26.6967 17.903 26.5486 17.4457 26.3736C17.0543 26.1978 16.6574 26.044 16.2548 25.9121C15.8522 25.7802 15.4339 25.7143 15 25.7143C14.5 25.7143 14.0109 25.8022 13.5326 25.978C13.0543 26.1538 12.587 26.3626 12.1304 26.6044Z" fill="#494949"/>
</svg>