<svg xmlns="http://www.w3.org/2000/svg" width="24" height="25" viewBox="0 0 24 25" fill="none">
  <path d="M12.0041 25C11.7766 25 11.5584 24.9177 11.3976 24.7712C11.2367 24.6247 11.1464 24.426 11.1464 24.2188V22.1984L10.0382 23.2094C9.87718 23.3559 9.65884 23.4381 9.43124 23.4379C9.20364 23.4378 8.98542 23.3553 8.8246 23.2086C8.66377 23.0619 8.57351 22.863 8.57367 22.6557C8.57383 22.4484 8.6644 22.2496 8.82545 22.1031L11.1464 19.9891V13.8531L5.31405 16.9203L4.46322 19.8109C4.40408 20.0111 4.26007 20.1817 4.06286 20.2851C3.86566 20.3885 3.63143 20.4164 3.41169 20.3625C3.19195 20.3086 3.0047 20.1775 2.89114 19.9978C2.77758 19.8182 2.74701 19.6048 2.80616 19.4047L3.2127 18.0266L1.29147 19.0359C1.09458 19.1379 0.861402 19.1648 0.642825 19.1107C0.424248 19.0567 0.238016 18.9261 0.124769 18.7474C0.0115218 18.5688 -0.0195461 18.3565 0.0383449 18.1571C0.0962359 17.9576 0.238386 17.7871 0.433774 17.6828L2.35501 16.6734L0.838606 16.3031C0.729802 16.2765 0.627831 16.2305 0.538515 16.1679C0.4492 16.1054 0.374289 16.0274 0.31806 15.9385C0.261831 15.8495 0.225385 15.7514 0.210803 15.6496C0.196221 15.5478 0.203789 15.4444 0.233074 15.3453C0.262359 15.2462 0.312787 15.1533 0.381481 15.072C0.450174 14.9906 0.535787 14.9224 0.63343 14.8712C0.731074 14.8199 0.838837 14.7867 0.950566 14.7735C1.0623 14.7602 1.1758 14.7671 1.28461 14.7938L4.45464 15.5672L10.2887 12.5L4.45636 9.43281L1.28289 10.2063C1.06458 10.2558 0.833632 10.2253 0.639827 10.1212C0.446021 10.0171 0.304879 9.84778 0.246824 9.64978C0.188768 9.45178 0.218449 9.24094 0.329468 9.06269C0.440487 8.88444 0.623953 8.75306 0.840321 8.69687L2.35501 8.32656L0.433774 7.31719C0.335443 7.26626 0.249142 7.19813 0.179839 7.1167C0.110536 7.03527 0.0595998 6.94216 0.0299633 6.84273C0.000326715 6.7433 -0.00742497 6.63951 0.00715463 6.53734C0.0217342 6.43516 0.0583572 6.33663 0.114915 6.2474C0.171472 6.15817 0.246848 6.08002 0.336701 6.01743C0.426554 5.95485 0.529111 5.90907 0.638466 5.88274C0.747821 5.8564 0.861816 5.85003 0.973886 5.86399C1.08596 5.87794 1.19389 5.91195 1.29147 5.96406L3.2127 6.97344L2.80616 5.59375C2.77494 5.49403 2.76584 5.38964 2.77937 5.28668C2.79291 5.18372 2.82881 5.08425 2.88498 4.99406C2.94116 4.90386 3.01648 4.82476 3.10656 4.76136C3.19664 4.69796 3.29968 4.65152 3.40967 4.62476C3.51966 4.59801 3.63439 4.59146 3.74718 4.60551C3.85997 4.61956 3.96857 4.65392 4.06663 4.70659C4.16469 4.75926 4.25027 4.82918 4.31836 4.91229C4.38645 4.99539 4.43569 5.09001 4.46322 5.19063L5.31234 8.07969L11.1464 11.1469V5.01094L8.82545 2.89687C8.74571 2.82434 8.68243 2.73821 8.63923 2.6434C8.59603 2.54859 8.57375 2.44695 8.57367 2.3443C8.57359 2.24165 8.59571 2.13999 8.63876 2.04512C8.68182 1.95026 8.74496 1.86404 8.8246 1.79141C8.90423 1.71877 8.99879 1.66113 9.10288 1.62178C9.20696 1.58243 9.31854 1.56214 9.43124 1.56207C9.54393 1.56199 9.65554 1.58214 9.75969 1.62136C9.86384 1.66057 9.95849 1.71809 10.0382 1.79063L11.1464 2.80156V0.78125C11.1464 0.57405 11.2367 0.375336 11.3976 0.228823C11.5584 0.08231 11.7766 0 12.0041 0C12.2315 0 12.4497 0.08231 12.6105 0.228823C12.7714 0.375336 12.8618 0.57405 12.8618 0.78125V2.80156L13.9716 1.79063C14.1327 1.64413 14.351 1.56192 14.5786 1.56207C14.8062 1.56221 15.0244 1.64471 15.1853 1.79141C15.3461 1.9381 15.4363 2.13699 15.4362 2.3443C15.436 2.55162 15.3455 2.75038 15.1844 2.89687L12.8618 5.01094V11.1469L18.6941 8.07969L19.5449 5.18906C19.6041 4.98891 19.7481 4.81835 19.9453 4.71491C20.1425 4.61147 20.3767 4.58363 20.5964 4.6375C20.8162 4.69137 21.0034 4.82255 21.117 5.00217C21.2306 5.1818 21.2611 5.39516 21.202 5.59531L20.7971 6.97344L22.7184 5.96406C22.9153 5.8621 23.1485 5.83521 23.367 5.88926C23.5856 5.94331 23.7718 6.07392 23.8851 6.25258C23.9983 6.43124 24.0294 6.64346 23.9715 6.84291C23.9136 7.04236 23.7715 7.21285 23.5761 7.31719L21.6548 8.32656L23.1695 8.69687C23.3893 8.75075 23.5765 8.88192 23.6901 9.06155C23.8036 9.24117 23.8342 9.45453 23.7751 9.65469C23.7159 9.85484 23.5719 10.0254 23.3747 10.1288C23.1775 10.2323 22.9433 10.2601 22.7235 10.2063L19.5535 9.43281L13.7195 12.5L19.5518 15.5672L22.7235 14.7938C22.9433 14.7401 23.1774 14.7681 23.3745 14.8717C23.5715 14.9753 23.7153 15.1459 23.7742 15.3461C23.8331 15.5462 23.8023 15.7595 23.6886 15.939C23.5749 16.1185 23.3876 16.2495 23.1678 16.3031L21.6531 16.6734L23.5744 17.6828C23.7698 17.7871 23.9119 17.9576 23.9698 18.1571C24.0277 18.3565 23.9966 18.5688 23.8834 18.7474C23.7701 18.9261 23.5839 19.0567 23.3653 19.1107C23.1467 19.1648 22.9136 19.1379 22.7167 19.0359L20.7954 18.0266L21.2003 19.4062C21.2315 19.506 21.2406 19.6104 21.227 19.7133C21.2135 19.8163 21.1776 19.9158 21.1214 20.0059C21.0653 20.0961 20.9899 20.1752 20.8999 20.2386C20.8098 20.302 20.7067 20.3485 20.5968 20.3752C20.4868 20.402 20.372 20.4085 20.2592 20.3945C20.1464 20.3804 20.0379 20.3461 19.9398 20.2934C19.8417 20.2407 19.7562 20.1708 19.6881 20.0877C19.62 20.0046 19.5707 19.91 19.5432 19.8094L18.6941 16.9203L12.8618 13.8531V19.9891L15.1827 22.1031C15.3437 22.2496 15.4343 22.4484 15.4345 22.6557C15.4346 22.863 15.3444 23.0619 15.1835 23.2086C15.0227 23.3553 14.8045 23.4378 14.5769 23.4379C14.3493 23.4381 14.131 23.3559 13.9699 23.2094L12.86 22.1984V24.2188C12.86 24.426 12.7697 24.6247 12.6088 24.7712C12.448 24.9177 12.2315 25 12.0041 25Z" fill="black"/>
</svg>