<svg xmlns="http://www.w3.org/2000/svg" width="23" height="23" viewBox="0 0 23 23" fill="none">
  <path d="M11.375 0C5.103 0 0 5.103 0 11.375C0 17.647 5.103 22.75 11.375 22.75C17.647 22.75 22.75 17.647 22.75 11.375C22.75 5.103 17.647 0 11.375 0ZM11.375 1.75C16.6819 1.75 21 6.06812 21 11.375C21 16.6819 16.6819 21 11.375 21C6.06812 21 1.75 16.6819 1.75 11.375C1.75 6.06812 6.06812 1.75 11.375 1.75ZM6.17313 7.147L5.20187 8.603L6.73487 9.625L5.20187 10.647L6.17313 12.103L9.89013 9.625L6.17313 7.147ZM16.5769 7.147L12.8599 9.625L16.5769 12.103L17.5481 10.647L16.0151 9.625L17.5481 8.603L16.5769 7.147ZM11.375 14C9.0965 14 7.58275 15.8891 7.04638 16.926C7.01006 16.9949 6.99516 17.0732 7.00359 17.1506C7.01203 17.2281 7.0434 17.3013 7.0937 17.3608C7.144 17.4203 7.21092 17.4634 7.2859 17.4846C7.36087 17.5058 7.44047 17.5042 7.5145 17.4799C8.40438 17.1876 9.93038 16.625 11.375 16.625C12.8196 16.625 14.3456 17.1885 15.2355 17.4799C15.3095 17.5042 15.3891 17.5058 15.4641 17.4846C15.5391 17.4634 15.606 17.4203 15.6563 17.3608C15.7066 17.3013 15.738 17.2281 15.7464 17.1506C15.7548 17.0732 15.7399 16.9949 15.7036 16.926C15.1673 15.89 13.6535 14 11.375 14Z" fill="black"/>
</svg>