<svg xmlns="http://www.w3.org/2000/svg" width="25" height="22" viewBox="0 0 25 22" fill="none">
  <path d="M9.08832 3.61515C10.2935 3.61515 11.4493 4.09391 12.3015 4.94611C13.1537 5.7983 13.6325 6.95413 13.6325 8.15931C13.6325 9.3645 13.1537 10.5203 12.3015 11.3725C11.4493 12.2247 10.2935 12.7035 9.08832 12.7035C7.88314 12.7035 6.72731 12.2247 5.87511 11.3725C5.02292 10.5203 4.54416 9.3645 4.54416 8.15931C4.54416 6.95413 5.02292 5.7983 5.87511 4.94611C6.72731 4.09391 7.88314 3.61515 9.08832 3.61515ZM9.08832 14.9756C12.1216 14.9756 18.1766 16.4979 18.1766 19.5197V21.7918H0V19.5197C0 16.4979 6.05509 14.9756 9.08832 14.9756ZM17.904 4.02413C20.1988 6.52342 20.1988 9.98834 17.904 12.2831L15.9954 10.3632C16.9497 9.0227 16.9497 7.28456 15.9954 5.94404L17.904 4.02413ZM21.6643 0.207031C26.1289 4.80799 26.0948 11.6924 21.6643 16.1116L19.8125 14.2598C22.9594 10.6472 22.9594 5.48962 19.8125 2.05878L21.6643 0.207031Z" fill="black"/>
</svg>